<svg width="40" height="35" viewBox="0 0 40 35" fill="none" xmlns="http://www.w3.org/2000/svg">
<circle cx="16" cy="19" r="16" fill="#14453D" fill-opacity="0.1"/>
<path d="M24 16.7588C25.6569 16.7588 27 15.4156 27 13.7588C27 12.1019 25.6569 10.7588 24 10.7588C22.3431 10.7588 21 12.1019 21 13.7588C21 15.4156 22.3431 16.7588 24 16.7588Z" stroke="#14453D" stroke-width="2" stroke-linecap="round" stroke-linejoin="round"/>
<path d="M24 16.7588V29.6708" stroke="#14453D" stroke-width="2" stroke-linecap="round" stroke-linejoin="round"/>
<path d="M33.7148 25.1867C35.3716 23.7786 36.7023 22.0273 37.615 20.0539C38.5276 18.0805 39.0003 15.9322 39.0003 13.758C39.0003 11.5838 38.5276 9.43556 37.615 7.46216C36.7023 5.48876 35.3716 3.73738 33.7148 2.32935" stroke="#14453D" stroke-width="2" stroke-linecap="round" stroke-linejoin="round"/>
<path d="M29.8281 20.616C30.8223 19.7713 31.6209 18.7204 32.1685 17.5364C32.7162 16.3523 32.9999 15.0633 32.9999 13.7587C32.9999 12.4541 32.7162 11.1651 32.1685 9.98104C31.6209 8.79696 30.8223 7.74613 29.8281 6.90137" stroke="#14453D" stroke-width="2" stroke-linecap="round" stroke-linejoin="round"/>
<path d="M14.2855 25.1867C12.6288 23.7786 11.298 22.0273 10.3854 20.0539C9.4727 18.0805 9 15.9322 9 13.758C9 11.5838 9.4727 9.43556 10.3854 7.46216C11.298 5.48876 12.6288 3.73738 14.2855 2.32935" stroke="#14453D" stroke-width="2" stroke-linecap="round" stroke-linejoin="round"/>
<path d="M18.1717 20.616C17.1776 19.7713 16.379 18.7204 15.8313 17.5364C15.2837 16.3523 15 15.0633 15 13.7587C15 12.4541 15.2837 11.1651 15.8313 9.98104C16.379 8.79696 17.1776 7.74613 18.1717 6.90137" stroke="#14453D" stroke-width="2" stroke-linecap="round" stroke-linejoin="round"/>
</svg>
