<svg width="40" height="35" viewBox="0 0 40 35" fill="none" xmlns="http://www.w3.org/2000/svg">
<circle cx="16" cy="19" r="16" fill="#14453D" fill-opacity="0.1"/>
<g clip-path="url(#clip0_11333_1944)">
<path d="M23.0015 22.9998L18.7348 18.5545C18.3615 18.1796 18.1155 17.6968 18.0318 17.1745C17.948 16.6521 18.0307 16.1166 18.2681 15.6438C18.4467 15.2864 18.7076 14.9766 19.0295 14.7399C19.3513 14.5032 19.7248 14.3464 20.1191 14.2825C20.5135 14.2185 20.9174 14.2493 21.2975 14.3721C21.6777 14.495 22.0232 14.7065 22.3055 14.9892L23.0015 15.6852L23.6975 14.9892C23.9798 14.7065 24.3253 14.495 24.7054 14.3721C25.0856 14.2493 25.4895 14.2185 25.8838 14.2825C26.2782 14.3464 26.6517 14.5032 26.9735 14.7399C27.2953 14.9766 27.5563 15.2864 27.7348 15.6438C27.9716 16.1171 28.0534 16.653 27.9687 17.1754C27.884 17.6977 27.637 18.1802 27.2628 18.5545L23.0015 22.9998Z" stroke="#14453D" stroke-width="2" stroke-linecap="round" stroke-linejoin="round"/>
<path d="M11 12V30" stroke="#14453D" stroke-width="2" stroke-linecap="round" stroke-linejoin="round"/>
<path d="M34.9961 20H38.0001C38.2648 20 38.5188 19.895 38.7063 19.7081C38.8937 19.5211 38.9994 19.2675 39.0001 19.0027C39.0108 13.8947 39.0374 7.72537 36.9214 2.61737C36.8329 2.40355 36.673 2.22703 36.469 2.11792C36.2649 2.0088 36.0293 1.97383 35.8024 2.01897C35.5754 2.06411 35.3711 2.18656 35.2243 2.36546C35.0776 2.54436 34.9974 2.76863 34.9974 3.00003V30" stroke="#14453D" stroke-width="2" stroke-linecap="round" stroke-linejoin="round"/>
<path d="M9 2V10C9 10.5304 9.21071 11.0391 9.58579 11.4142C9.96086 11.7893 10.4696 12 11 12C11.5304 12 12.0391 11.7893 12.4142 11.4142C12.7893 11.0391 13 10.5304 13 10V2" stroke="#14453D" stroke-width="2" stroke-linecap="round" stroke-linejoin="round"/>
<path d="M30 11.42C29.1047 10.4592 28.0211 9.69293 26.8169 9.16903C25.6126 8.64513 24.3133 8.37476 23 8.37476C21.6867 8.37476 20.3874 8.64513 19.1832 9.16903C17.9789 9.69293 16.8953 10.4592 16 11.42" stroke="#14453D" stroke-width="2" stroke-linecap="round" stroke-linejoin="round"/>
<path d="M16 24.5801C16.8953 25.5409 17.9789 26.3071 19.1832 26.831C20.3874 27.3549 21.6867 27.6253 23 27.6253C24.3133 27.6253 25.6126 27.3549 26.8169 26.831C28.0211 26.3071 29.1047 25.5409 30 24.5801" stroke="#14453D" stroke-width="2" stroke-linecap="round" stroke-linejoin="round"/>
</g>
<defs>
<clipPath id="clip0_11333_1944">
<rect width="32" height="32" fill="white" transform="translate(8)"/>
</clipPath>
</defs>
</svg>
