<svg width="40" height="35" viewBox="0 0 40 35" fill="none" xmlns="http://www.w3.org/2000/svg">
<circle cx="16" cy="19" r="16" fill="#14453D" fill-opacity="0.1"/>
<g clip-path="url(#clip0_11333_1800)">
<path d="M21 31.0054H13C12.4696 31.0054 11.9609 30.7947 11.5858 30.4196C11.2107 30.0445 11 29.5358 11 29.0054V3.00537C11 2.47494 11.2107 1.96623 11.5858 1.59116C11.9609 1.21608 12.4696 1.00537 13 1.00537H27C27.5304 1.00537 28.0391 1.21608 28.4142 1.59116C28.7893 1.96623 29 2.47494 29 3.00537V10" stroke="#14453D" stroke-width="2" stroke-linecap="round" stroke-linejoin="round"/>
<path d="M15.5 15.5053C15.4009 15.5053 15.304 15.5348 15.2216 15.59C15.1393 15.6452 15.0752 15.7236 15.0375 15.8152C14.9999 15.9069 14.9903 16.0077 15.01 16.1049C15.0297 16.202 15.0779 16.2911 15.1483 16.3608C15.2188 16.4305 15.3084 16.4777 15.4057 16.4964C15.5031 16.5151 15.6038 16.5044 15.695 16.4657C15.7863 16.4271 15.864 16.3621 15.9183 16.2792C15.9726 16.1963 16.001 16.0991 16 16C16 15.8674 15.9473 15.7402 15.8535 15.6464C15.7598 15.5527 15.6326 15.5 15.5 15.5" stroke="#14453D" stroke-width="2" stroke-linecap="round" stroke-linejoin="round"/>
<path d="M35 21.0054H27C25.8954 21.0054 25 21.9008 25 23.0054V29.0054C25 30.1099 25.8954 31.0054 27 31.0054H35C36.1046 31.0054 37 30.1099 37 29.0054V23.0054C37 21.9008 36.1046 21.0054 35 21.0054Z" stroke="#14453D" stroke-width="2" stroke-linecap="round" stroke-linejoin="round"/>
<path d="M27 21.0054V19.0054C27 17.9445 27.4214 16.9271 28.1716 16.1769C28.9217 15.4268 29.9391 15.0054 31 15.0054C32.0609 15.0054 33.0783 15.4268 33.8284 16.1769C34.5786 16.9271 35 17.9445 35 19.0054V21.0054" stroke="#14453D" stroke-width="2" stroke-linecap="round" stroke-linejoin="round"/>
<path d="M31 25.5054C30.9011 25.5054 30.8044 25.5347 30.7222 25.5896C30.64 25.6446 30.5759 25.7227 30.5381 25.814C30.5002 25.9054 30.4903 26.0059 30.5096 26.1029C30.5289 26.1999 30.5765 26.289 30.6464 26.3589C30.7164 26.4289 30.8055 26.4765 30.9025 26.4958C30.9994 26.5151 31.1 26.5052 31.1913 26.4673C31.2827 26.4295 31.3608 26.3654 31.4157 26.2832C31.4707 26.2009 31.5 26.1043 31.5 26.0054C31.5 25.8728 31.4473 25.7456 31.3536 25.6518C31.2598 25.558 31.1326 25.5054 31 25.5054Z" stroke="#14453D" stroke-width="2" stroke-linecap="round" stroke-linejoin="round"/>
</g>
<defs>
<clipPath id="clip0_11333_1800">
<rect width="32" height="32" fill="white" transform="translate(8)"/>
</clipPath>
</defs>
</svg>
