<svg width="40" height="35" viewBox="0 0 40 35" fill="none" xmlns="http://www.w3.org/2000/svg">
<circle cx="16" cy="19" r="16" fill="#14453D" fill-opacity="0.1"/>
<g clip-path="url(#clip0_11333_1890)">
<path d="M24 2.3373C22.4796 1.45952 20.755 0.997453 18.9994 0.997559C17.2438 0.997664 15.5192 1.45994 13.999 2.33791C12.4787 3.21588 11.2164 4.4786 10.3388 5.99913C9.46133 7.51965 8.99958 9.2444 9 11" stroke="#14453D" stroke-width="2" stroke-linecap="round" stroke-linejoin="round"/>
<path d="M29 11C29.0017 9.62353 28.7184 8.26161 28.168 7" stroke="#14453D" stroke-width="2" stroke-linecap="round" stroke-linejoin="round"/>
<path d="M19 31C19.6717 31.0002 20.3417 30.9332 21 30.8" stroke="#14453D" stroke-width="2" stroke-linecap="round" stroke-linejoin="round"/>
<path d="M9 17V21C8.99945 22.9463 9.56684 24.8504 10.6326 26.4789C11.6984 28.1074 13.2162 29.3895 15 30.168" stroke="#14453D" stroke-width="2" stroke-linecap="round" stroke-linejoin="round"/>
<path d="M25 17V11C25.0002 9.94664 24.7231 8.91183 24.1966 7.99955C23.6701 7.08727 22.9127 6.32967 22.0005 5.80292C21.0884 5.27617 20.0536 4.99883 19.0003 4.99878C17.947 4.99873 16.9122 5.27597 16 5.80263" stroke="#14453D" stroke-width="2" stroke-linecap="round" stroke-linejoin="round"/>
<path d="M13 11V21C12.9997 21.96 13.2298 22.9061 13.6709 23.7588C14.1121 24.6115 14.7514 25.3459 15.5352 25.9003C16.3189 26.4547 17.2243 26.8129 18.1752 26.9449C19.1262 27.0768 20.0949 26.9787 21 26.6587" stroke="#14453D" stroke-width="2" stroke-linecap="round" stroke-linejoin="round"/>
<path d="M17 21C17 21.5304 17.2107 22.0391 17.5858 22.4142C17.9609 22.7893 18.4696 23 19 23C19.5304 23 20.0391 22.7893 20.4142 22.4142C20.7893 22.0391 21 21.5304 21 21V11C21 10.4696 20.7893 9.96086 20.4142 9.58579C20.0391 9.21071 19.5304 9 19 9C18.4696 9 17.9609 9.21071 17.5858 9.58579C17.2107 9.96086 17 10.4696 17 11V15" stroke="#14453D" stroke-width="2" stroke-linecap="round" stroke-linejoin="round"/>
<path d="M37 21H29C27.8954 21 27 21.8954 27 23V29C27 30.1046 27.8954 31 29 31H37C38.1046 31 39 30.1046 39 29V23C39 21.8954 38.1046 21 37 21Z" stroke="#14453D" stroke-width="2" stroke-linecap="round" stroke-linejoin="round"/>
<path d="M33 15C31.9391 15 30.9217 15.4214 30.1716 16.1716C29.4214 16.9217 29 17.9391 29 19V21H37V19C37 17.9391 36.5786 16.9217 35.8284 16.1716C35.0783 15.4214 34.0609 15 33 15Z" stroke="#14453D" stroke-width="2" stroke-linecap="round" stroke-linejoin="round"/>
<path d="M33 25.5386C33.0989 25.5386 33.1956 25.5679 33.2778 25.6228C33.36 25.6778 33.4241 25.7559 33.4619 25.8472C33.4998 25.9386 33.5097 26.0391 33.4904 26.1361C33.4711 26.2331 33.4235 26.3222 33.3536 26.3921C33.2836 26.4621 33.1945 26.5097 33.0975 26.529C33.0006 26.5483 32.9 26.5384 32.8087 26.5005C32.7173 26.4627 32.6392 26.3986 32.5843 26.3164C32.5293 26.2341 32.5 26.1375 32.5 26.0386C32.5 25.906 32.5527 25.7788 32.6464 25.685C32.7402 25.5913 32.8674 25.5386 33 25.5386Z" stroke="#14453D" stroke-width="2" stroke-linecap="round" stroke-linejoin="round"/>
</g>
<defs>
<clipPath id="clip0_11333_1890">
<rect width="32" height="32" fill="white" transform="translate(8)"/>
</clipPath>
</defs>
</svg>
