<svg width="17" height="19" viewBox="0 0 17 19" fill="none" xmlns="http://www.w3.org/2000/svg">
<path d="M1 6.66667H16M4.33333 1V2.88889M12.6667 1V2.88889M3.5 9.5H5.16667M7.66667 9.5H9.33333M11.8333 9.5H13.5M3.5 12.3333H5.16667M7.66667 12.3333H9.33333M11.8333 12.3333H13.5M3.5 15.1667H5.16667M7.66667 15.1667H9.33333M11.8333 15.1667H13.5M3.66667 18H13.3333C14.2667 18 14.7335 18 15.09 17.7941C15.4036 17.6131 15.6586 17.3241 15.8183 16.9687C16 16.5646 16 16.0356 16 14.9778V5.91111C16 4.85323 16 4.32429 15.8183 3.92024C15.6586 3.56482 15.4036 3.27586 15.09 3.09477C14.7335 2.88889 14.2667 2.88889 13.3333 2.88889H3.66667C2.73325 2.88889 2.26653 2.88889 1.91002 3.09477C1.59641 3.27586 1.34144 3.56482 1.18166 3.92024C1 4.32429 1 4.85323 1 5.91111V14.9778C1 16.0356 1 16.5646 1.18166 16.9687C1.34144 17.3241 1.59641 17.6131 1.91002 17.7941C2.26653 18 2.73324 18 3.66667 18Z" stroke="#070615" stroke-width="1.2" stroke-linecap="round"/>
</svg>
