<svg width="26" height="23" viewBox="0 0 26 23" fill="none" xmlns="http://www.w3.org/2000/svg">
<path d="M1.7854 9.50003L10.7807 15.5208C11.5826 16.0554 11.9836 16.3227 12.417 16.4265C12.7999 16.5183 13.1991 16.5183 13.5821 16.4265C14.0155 16.3227 14.4165 16.0554 15.2184 15.5208L24.2138 9.50003M10.8726 2.08602L3.62267 6.63912C2.93901 7.06846 2.59719 7.28313 2.34925 7.57333C2.12981 7.83018 1.9647 8.12885 1.86389 8.45128C1.75 8.81558 1.75 9.21922 1.75 10.0265V18C1.75 19.4002 1.75 20.1003 2.02249 20.635C2.26216 21.1054 2.64461 21.4879 3.11503 21.7275C3.6498 22 4.34986 22 5.75 22H20.25C21.6501 22 22.3503 22 22.885 21.7275C23.3554 21.4879 23.7379 21.1054 23.9775 20.635C24.25 20.1003 24.25 19.4002 24.25 18V10.0265C24.25 9.21922 24.25 8.81558 24.1361 8.45128C24.0352 8.12885 23.8702 7.83018 23.6507 7.57333C23.4029 7.28313 23.061 7.06846 22.3774 6.63912L15.1274 2.08602C14.3557 1.60148 13.97 1.35922 13.5561 1.26478C13.19 1.18127 12.81 1.18127 12.4439 1.26478C12.03 1.35922 11.6443 1.60148 10.8726 2.08602Z" stroke="#14453D" stroke-width="1.8" stroke-linecap="round" stroke-linejoin="round"/>
</svg>
