<svg width="28" height="28" viewBox="0 0 28 28" fill="none" xmlns="http://www.w3.org/2000/svg">
<g clip-path="url(#clip0_11347_9770)">
<path d="M13.9909 2.33398C7.55094 2.33398 2.33594 7.56065 2.33594 14.0007C2.33594 20.4407 7.55094 25.6673 13.9909 25.6673C20.4426 25.6673 25.6693 20.4407 25.6693 14.0007C25.6693 7.56065 20.4426 2.33398 13.9909 2.33398ZM14.0026 23.334C8.84594 23.334 4.66927 19.1573 4.66927 14.0007C4.66927 8.84398 8.84594 4.66732 14.0026 4.66732C19.1593 4.66732 23.3359 8.84398 23.3359 14.0007C23.3359 19.1573 19.1593 23.334 14.0026 23.334Z" fill="#14453D"/>
<path d="M14.5859 8.16602H12.8359V15.166L18.9609 18.841L19.8359 17.406L14.5859 14.291V8.16602Z" fill="#14453D"/>
</g>
<defs>
<clipPath id="clip0_11347_9770">
<rect width="28" height="28" fill="white"/>
</clipPath>
</defs>
</svg>
