<svg width="26" height="26" viewBox="0 0 26 26" fill="none" xmlns="http://www.w3.org/2000/svg">
<g clip-path="url(#clip0_11347_9749)">
<path d="M19.0461 16.9855C18.821 16.7591 18.5535 16.5796 18.2589 16.457C17.9644 16.3345 17.6486 16.2714 17.3297 16.2714C17.0107 16.2714 16.6949 16.3345 16.4004 16.457C16.1058 16.5796 15.8383 16.7591 15.6132 16.9855L14.442 18.1588C13.1233 17.3204 11.9015 16.3379 10.7991 15.2294C9.69501 14.1229 8.71455 12.8992 7.87507 11.5799L9.04629 10.4065C9.2722 10.181 9.45144 9.91296 9.57375 9.61787C9.69605 9.32278 9.75901 9.00641 9.75901 8.6869C9.75901 8.36738 9.69605 8.05101 9.57375 7.75593C9.45144 7.46084 9.2722 7.19284 9.04629 6.96731L6.76039 4.6853C6.53844 4.45823 6.27319 4.27818 5.98041 4.15584C5.68763 4.03351 5.37328 3.9714 5.05606 3.97319C4.73658 3.9724 4.42011 4.03492 4.12484 4.15713C3.82957 4.27934 3.56134 4.45884 3.33557 4.6853L2.23705 5.77775C1.71345 6.34175 1.32266 7.01614 1.09342 7.75134C0.864182 8.48654 0.80231 9.26385 0.912356 10.0262C1.17083 13.0607 3.15787 16.7103 6.2192 19.7854C9.28053 22.8604 12.9638 24.843 15.9928 25.1343C16.2189 25.1464 16.4453 25.1464 16.6713 25.1343C17.3234 25.1617 17.9743 25.0585 18.586 24.8306C19.1977 24.6027 19.7578 24.2548 20.2335 23.8072L21.3239 22.7066C21.55 22.4805 21.7291 22.2117 21.8511 21.9159C21.9731 21.6201 22.0355 21.3031 22.0347 20.983C22.0365 20.6652 21.9745 20.3503 21.8524 20.057C21.7303 19.7636 21.5506 19.4979 21.3239 19.2755L19.0461 16.9855ZM20.185 21.5656L19.0865 22.6581C18.6803 22.9972 18.2062 23.245 17.6961 23.3846C17.1861 23.5242 16.652 23.5524 16.1302 23.4673C13.505 23.2407 10.161 21.3795 7.3985 18.612C4.63603 15.8445 2.77823 12.5186 2.52783 9.88859C2.44073 9.36576 2.46783 8.83023 2.60728 8.31892C2.74673 7.8076 2.9952 7.33266 3.33557 6.92684L4.47449 5.8263C4.54996 5.7513 4.63947 5.69197 4.73788 5.6517C4.8363 5.61143 4.94168 5.59101 5.04798 5.59163C5.15428 5.59101 5.25966 5.61143 5.35808 5.6517C5.45649 5.69197 5.546 5.7513 5.62148 5.8263L7.90738 8.14068C8.05782 8.29229 8.14226 8.49739 8.14226 8.71118C8.14226 8.92496 8.05782 9.13006 7.90738 9.28168L6.2919 10.9001C6.16549 11.0261 6.08426 11.1905 6.06088 11.3677C6.0375 11.5448 6.07329 11.7247 6.16266 11.8793C7.12984 13.5288 8.30538 15.0465 9.66017 16.3947C11.0059 17.752 12.5208 18.9297 14.1674 19.8986C14.3217 19.9882 14.5012 20.024 14.678 20.0006C14.8548 19.9772 15.0189 19.8958 15.1447 19.7692L16.7602 18.1507C16.9115 18 17.1163 17.9154 17.3297 17.9154C17.543 17.9154 17.7478 18 17.8991 18.1507L20.185 20.4408C20.2599 20.5164 20.3191 20.6061 20.3593 20.7047C20.3995 20.8033 20.4199 20.9089 20.4193 21.0154C20.4142 21.222 20.3304 21.4189 20.185 21.5656ZM21.5905 4.41017C20.4679 3.28128 19.1334 2.38618 17.6639 1.77646C16.1944 1.16675 14.619 0.854493 13.0284 0.85769C12.8142 0.85769 12.6088 0.942947 12.4573 1.09471C12.3058 1.24646 12.2207 1.45229 12.2207 1.66691C12.2207 1.88153 12.3058 2.08736 12.4573 2.23912C12.6088 2.39087 12.8142 2.47613 13.0284 2.47613C14.4149 2.47608 15.7877 2.75111 17.0675 3.28534C18.3473 3.81957 19.5088 4.60243 20.4851 5.58873C21.4613 6.57504 22.2329 7.74527 22.7554 9.03189C23.2778 10.3185 23.5408 11.6961 23.5291 13.085C23.5291 13.2996 23.6142 13.5055 23.7656 13.6572C23.9171 13.809 24.1226 13.8942 24.3368 13.8942C24.551 13.8942 24.7565 13.809 24.908 13.6572C25.0594 13.5055 25.1445 13.2996 25.1445 13.085C25.16 11.4746 24.8535 9.8774 24.2431 8.38754C23.6327 6.89768 22.7308 5.54531 21.5905 4.41017Z" fill="#14453D"/>
<path d="M17.1505 8.83255C17.6009 9.27532 17.9572 9.80271 18.1984 10.3837C18.4396 10.9647 18.5609 11.5875 18.5552 12.2156C18.5552 12.4238 18.6388 12.6234 18.7876 12.7706C18.9364 12.9178 19.1383 13.0005 19.3488 13.0005C19.5592 13.0005 19.7611 12.9178 19.9099 12.7706C20.0588 12.6234 20.1424 12.4238 20.1424 12.2156C20.1529 11.3844 19.9964 10.5594 19.6821 9.78845C19.3677 9.01751 18.9017 8.31597 18.3111 7.72453C17.7206 7.1331 17.0171 6.66352 16.2416 6.34306C15.4661 6.02259 14.634 5.8576 13.7936 5.85767C13.5831 5.85767 13.3813 5.94036 13.2324 6.08757C13.0836 6.23477 13 6.43442 13 6.64259C13 6.85077 13.0836 7.05042 13.2324 7.19762C13.3813 7.34483 13.5831 7.42752 13.7936 7.42752C14.419 7.43218 15.0374 7.55867 15.6134 7.79974C16.1894 8.04082 16.7117 8.39177 17.1505 8.83255Z" fill="#14453D"/>
</g>
<defs>
<clipPath id="clip0_11347_9749">
<rect width="25.7143" height="25.7143" fill="white" transform="translate(0.140625 0.142822)"/>
</clipPath>
</defs>
</svg>
