<svg width="24" height="24" viewBox="0 0 24 24" fill="none" xmlns="http://www.w3.org/2000/svg">
<g clip-path="url(#clip0_11433_14624)">
<path d="M20.25 5.25H3.75C2.09315 5.25 0.75 6.59315 0.75 8.25V20.25C0.75 21.9069 2.09315 23.25 3.75 23.25H20.25C21.9069 23.25 23.25 21.9069 23.25 20.25V8.25C23.25 6.59315 21.9069 5.25 20.25 5.25Z" stroke="#007F5F" stroke-width="1.5" stroke-linecap="round" stroke-linejoin="round"/>
<path d="M14.25 0.75H9.75C9.35218 0.75 8.97064 0.908035 8.68934 1.18934C8.40804 1.47064 8.25 1.85218 8.25 2.25V5.25H15.75V2.25C15.75 1.85218 15.592 1.47064 15.3107 1.18934C15.0294 0.908035 14.6478 0.75 14.25 0.75Z" stroke="#007F5F" stroke-width="1.5" stroke-linecap="round" stroke-linejoin="round"/>
<path d="M12 15.75C12.8284 15.75 13.5 15.0784 13.5 14.25C13.5 13.4216 12.8284 12.75 12 12.75C11.1716 12.75 10.5 13.4216 10.5 14.25C10.5 15.0784 11.1716 15.75 12 15.75Z" stroke="#007F5F" stroke-width="1.5" stroke-linecap="round" stroke-linejoin="round"/>
<path d="M13.2733 8.44813L13.7153 9.90113C13.7882 10.1423 13.95 10.3468 14.168 10.4732C14.3859 10.5996 14.6437 10.6385 14.8893 10.5821L16.3613 10.2411C16.6403 10.1783 16.9321 10.2064 17.194 10.3213C17.4558 10.4363 17.674 10.6321 17.8165 10.8801C17.9591 11.128 18.0185 11.4151 17.986 11.6992C17.9536 11.9834 17.831 12.2497 17.6363 12.4591L16.6053 13.5701C16.4332 13.7552 16.3376 13.9985 16.3376 14.2511C16.3376 14.5038 16.4332 14.7471 16.6053 14.9321L17.6363 16.0431C17.831 16.2526 17.9536 16.5189 17.986 16.803C18.0185 17.0872 17.9591 17.3743 17.8165 17.6222C17.674 17.8702 17.4558 18.066 17.194 18.1809C16.9321 18.2959 16.6403 18.324 16.3613 18.2611L14.8893 17.9201C14.6437 17.8637 14.3859 17.9027 14.168 18.0291C13.95 18.1555 13.7882 18.36 13.7153 18.6011L13.2733 20.0541C13.1911 20.3282 13.0228 20.5684 12.7933 20.7392C12.5638 20.91 12.2854 21.0023 11.9993 21.0023C11.7132 21.0023 11.4347 20.91 11.2052 20.7392C10.9757 20.5684 10.8074 20.3282 10.7253 20.0541L10.2833 18.6011C10.2103 18.36 10.0485 18.1555 9.83061 18.0291C9.61266 17.9027 9.35485 17.8637 9.10929 17.9201L7.63729 18.2611C7.35829 18.324 7.06649 18.2959 6.80462 18.1809C6.54275 18.066 6.32457 17.8702 6.18204 17.6222C6.03951 17.3743 5.98011 17.0872 6.01255 16.803C6.04498 16.5189 6.16755 16.2526 6.36229 16.0431L7.39329 14.9321C7.56536 14.7471 7.66101 14.5038 7.66101 14.2511C7.66101 13.9985 7.56536 13.7552 7.39329 13.5701L6.36229 12.4591C6.16755 12.2497 6.04498 11.9834 6.01255 11.6992C5.98011 11.4151 6.03951 11.128 6.18204 10.8801C6.32457 10.6321 6.54275 10.4363 6.80462 10.3213C7.06649 10.2064 7.35829 10.1783 7.63729 10.2411L9.10929 10.5821C9.35485 10.6385 9.61266 10.5996 9.83061 10.4732C10.0485 10.3468 10.2103 10.1423 10.2833 9.90113L10.7253 8.44813C10.8074 8.17409 10.9757 7.93384 11.2052 7.76305C11.4347 7.59225 11.7132 7.5 11.9993 7.5C12.2854 7.5 12.5638 7.59225 12.7933 7.76305C13.0228 7.93384 13.1911 8.17409 13.2733 8.44813Z" stroke="#007F5F" stroke-width="1.5" stroke-linecap="round" stroke-linejoin="round"/>
</g>
<defs>
<clipPath id="clip0_11433_14624">
<rect width="24" height="24" fill="white"/>
</clipPath>
</defs>
</svg>
