<svg width="22" height="22" viewBox="0 0 22 22" fill="none" xmlns="http://www.w3.org/2000/svg">
<path d="M5.58333 20.7482V10.5649C5.58333 9.95808 5.58333 9.65475 5.70141 9.42302C5.80528 9.21914 5.971 9.05339 6.17484 8.94961C6.40658 8.83148 6.70995 8.83148 7.31667 8.83148H14.6833C15.2901 8.83148 15.5934 8.83148 15.8252 8.94961C16.0291 9.05339 16.1947 9.21914 16.2986 9.42302C16.4167 9.65475 16.4167 9.95808 16.4167 10.5649V20.7482M8.83333 13.1649H13.1667M8.83333 17.4982H13.1667M1.25 9.3603V19.0149C1.25 19.6215 1.25 19.9249 1.36807 20.1567C1.47194 20.3605 1.63767 20.5262 1.84151 20.6301C2.07325 20.7482 2.37661 20.7482 2.98333 20.7482H19.0167C19.6234 20.7482 19.9268 20.7482 20.1585 20.6301C20.3624 20.5262 20.528 20.3605 20.6319 20.1567C20.75 19.9249 20.75 19.6215 20.75 19.0149V9.3603C20.75 8.19708 20.75 7.61545 20.5732 7.10161C20.4169 6.64721 20.1618 6.23313 19.8261 5.88918C19.4468 5.50025 18.9272 5.23873 17.8882 4.71567L13.3382 2.42518C12.481 1.99373 12.0526 1.778 11.6028 1.69311C11.2044 1.61792 10.7956 1.61792 10.3972 1.69311C9.94743 1.778 9.51898 1.99372 8.66185 2.42518L4.11185 4.71567C3.07282 5.23873 2.55329 5.50025 2.17381 5.88918C1.83823 6.23313 1.58308 6.64721 1.42677 7.10161C1.25 7.61545 1.25 8.19709 1.25 9.3603Z" stroke="#007F5F" stroke-width="1.4" stroke-linecap="round" stroke-linejoin="round"/>
</svg>
