<svg width="24" height="24" viewBox="0 0 24 24" fill="none" xmlns="http://www.w3.org/2000/svg">
<path d="M20.4678 8.62951C20.2292 8.86658 19.9065 8.99964 19.5701 8.99964C19.2338 8.99964 18.9111 8.86658 18.6725 8.62951L17.6187 7.57529C17.3816 7.33683 17.2485 7.01418 17.2485 6.67787C17.2485 6.34155 17.3816 6.01891 17.6187 5.78045L20.0042 3.39498C20.0088 3.39039 20.0122 3.38476 20.0141 3.37856C20.016 3.37236 20.0164 3.36579 20.0152 3.35942C20.014 3.35304 20.0113 3.34706 20.0072 3.34198C20.0032 3.3369 19.998 3.33289 19.992 3.33029C18.4526 2.67123 16.4562 3.00638 15.1887 4.26498C13.9756 5.4692 13.9067 7.27763 14.3511 8.85873C14.4142 9.08332 14.4141 9.32099 14.3506 9.5455C14.2872 9.77 14.1629 9.9726 13.9915 10.1309L5.88217 17.6665C5.68862 17.8399 5.53244 18.0508 5.4232 18.2866C5.31396 18.5223 5.25394 18.7778 5.24681 19.0375C5.23969 19.2972 5.28561 19.5557 5.38176 19.797C5.47792 20.0384 5.62229 20.2576 5.80606 20.4413C5.98982 20.625 6.20911 20.7692 6.45052 20.8652C6.69193 20.9613 6.9504 21.0071 7.21011 20.9998C7.46982 20.9925 7.72532 20.9324 7.96099 20.823C8.19666 20.7137 8.40755 20.5574 8.58077 20.3637L16.1815 12.2403C16.3382 12.0718 16.5377 11.9491 16.7588 11.8855C16.9799 11.8219 17.2142 11.8198 17.4364 11.8794C19.0048 12.2984 20.7875 12.2197 21.9865 11.0384C23.2751 9.76904 23.5531 7.5256 22.9287 6.2417C22.9259 6.23606 22.9218 6.23118 22.9167 6.22746C22.9116 6.22373 22.9057 6.22126 22.8995 6.22025C22.8933 6.21925 22.8869 6.21973 22.8809 6.22166C22.8749 6.2236 22.8694 6.22693 22.865 6.23138L20.4678 8.62951Z" stroke="#007F5F" stroke-width="1.4" stroke-miterlimit="10" stroke-linecap="round"/>
<path d="M10.4985 13.315C9.67913 12.5181 9.30366 12.1473 9.04537 11.8951C8.91612 11.7667 8.83126 11.6004 8.80318 11.4204C8.7751 11.2403 8.80527 11.056 8.88928 10.8944C8.93357 10.8149 8.9888 10.742 9.05334 10.6778L9.78834 9.96109C9.8644 9.88489 9.95387 9.82339 10.0522 9.77968C10.2076 9.71093 10.3799 9.69035 10.547 9.7206C10.7142 9.75085 10.8684 9.83054 10.9897 9.94937C11.2452 10.1973 11.713 10.6525 12.5558 11.4737" stroke="#007F5F" stroke-width="1.4" stroke-linecap="round" stroke-linejoin="round"/>
<path d="M14.8633 13.6562C16.7828 15.4422 19.1111 17.5595 20.0195 18.3161C20.0875 18.3721 20.1429 18.4417 20.1824 18.5204C20.2218 18.5992 20.2443 18.6853 20.2484 18.7732C20.2526 18.8612 20.2383 18.949 20.2065 19.0311C20.1746 19.1132 20.126 19.1877 20.0636 19.2498L18.4989 20.8141C18.4352 20.8763 18.3595 20.9249 18.2765 20.9569C18.1934 20.989 18.1047 21.0038 18.0157 21.0005C17.9267 20.9971 17.8394 20.9757 17.7589 20.9376C17.6785 20.8994 17.6067 20.8453 17.5478 20.7784C16.773 19.8794 14.6842 17.6327 12.8945 15.7628" stroke="#007F5F" stroke-width="1.4" stroke-linecap="round" stroke-linejoin="round"/>
<path d="M0.812858 9.07031L2.19145 7.72313C2.21251 7.70243 2.23751 7.68616 2.26496 7.67529C2.29242 7.66442 2.32177 7.65917 2.3513 7.65985C2.41081 7.65921 2.46819 7.68192 2.51114 7.72313C2.56106 7.77251 2.62158 7.80987 2.6881 7.83237C2.75462 7.85487 2.82539 7.86191 2.89504 7.85297C3.07458 7.83328 3.2663 7.77797 3.39051 7.65985C3.67176 7.38797 3.34645 6.85219 3.59395 6.50953C3.87695 6.13442 4.18683 5.78037 4.52114 5.45016C4.80239 5.17453 5.91989 4.12266 7.7977 3.36656C8.39822 3.12383 9.03998 2.99936 9.6877 3C10.7466 3 11.5627 3.46875 11.8561 3.73453C12.0323 3.90211 12.1935 4.08467 12.338 4.28016C12.1969 4.22814 12.0527 4.18478 11.9063 4.15031C11.5984 4.08499 11.2825 4.06509 10.9688 4.09125C10.344 4.14235 9.5902 4.43156 9.18755 4.7475C8.53598 5.26313 8.25614 5.95313 8.21208 6.84328C8.1802 7.50516 8.33958 7.87922 9.90426 9.44438C9.95774 9.50407 9.98597 9.58219 9.98299 9.66228C9.98002 9.74237 9.94608 9.81819 9.88833 9.87375L9.03426 10.7175C8.97473 10.7759 8.8949 10.8089 8.81152 10.8097C8.72814 10.8105 8.6477 10.779 8.58708 10.7217C7.55864 9.69328 6.86911 9.17063 6.4777 8.93297C6.0863 8.69532 5.7713 8.62828 5.61989 8.61188C5.32253 8.58241 5.02335 8.64579 4.76348 8.79328C4.71789 8.81834 4.67619 8.84992 4.63973 8.88703C4.57887 8.94994 4.53107 9.02428 4.4991 9.10576C4.46712 9.18724 4.4516 9.27425 4.45343 9.36176C4.45526 9.44927 4.4744 9.53555 4.50976 9.61563C4.54512 9.6957 4.59598 9.76798 4.65942 9.82828L4.73958 9.90328C4.76038 9.92351 4.77693 9.9477 4.78822 9.97443C4.79952 10.0012 4.80533 10.0299 4.80533 10.0589C4.80533 10.0879 4.79952 10.1167 4.78822 10.1434C4.77693 10.1701 4.76038 10.1943 4.73958 10.2145L3.36239 11.5594C3.34153 11.5805 3.31662 11.5972 3.28915 11.6085C3.26169 11.6198 3.23223 11.6254 3.20255 11.625C3.14304 11.6256 3.08567 11.6029 3.0427 11.5617L0.812858 9.38531C0.7725 9.34281 0.75 9.28643 0.75 9.22781C0.75 9.1692 0.7725 9.11282 0.812858 9.07031Z" stroke="#007F5F" stroke-width="1.4" stroke-linecap="round" stroke-linejoin="round"/>
</svg>
