<svg width="22" height="22" viewBox="0 0 22 22" fill="none" xmlns="http://www.w3.org/2000/svg">
<path d="M14.25 19.0152L16.1072 20.7485L20.75 16.4152M11 10.9985V15.3319M13.1667 13.1652H8.83333M3.41667 8.59076V15.5485C3.41667 17.3687 3.41667 18.2788 3.7709 18.9739C4.08248 19.5855 4.57967 20.0827 5.1912 20.3943C5.88641 20.7485 6.79649 20.7485 8.61667 20.7485H9.91667M20.75 10.9985L14.864 4.45949C13.5254 2.97233 12.8561 2.22874 12.0677 1.95424C11.3755 1.71312 10.6219 1.71317 9.92956 1.95439C9.14133 2.22902 8.47216 2.9727 7.13374 4.46006L1.25 10.9985" stroke="#007F5F" stroke-width="1.6" stroke-linecap="round" stroke-linejoin="round"/>
</svg>
