<svg width="30" height="30" viewBox="0 0 30 30" fill="none" xmlns="http://www.w3.org/2000/svg">
<path d="M15 1C17.9837 1 20.8452 2.18526 22.955 4.29505C25.0647 6.40483 26.25 9.26631 26.25 12.25C26.25 22.125 17.585 27.6638 15.4638 28.875C15.3222 28.9555 15.1622 28.9979 14.9994 28.9979C14.8365 28.9979 14.6765 28.9555 14.535 28.875C12.4138 27.665 3.75 22.125 3.75 12.25C3.75 9.26631 4.93526 6.40483 7.04505 4.29505C9.15483 2.18526 12.0163 1 15 1Z" stroke="#93C30D" stroke-width="2" stroke-linecap="round" stroke-linejoin="round"/>
<path d="M16.875 10.25C16.7351 11.6888 16.0671 13.0248 15 14C13.9329 13.0248 13.2649 11.6888 13.125 10.25C13.2649 8.81117 13.9329 7.47519 15 6.5C16.0671 7.47519 16.7351 8.81117 16.875 10.25Z" stroke="#93C30D" stroke-width="2" stroke-linecap="round" stroke-linejoin="round"/>
<path d="M16.5712 11.6991C16.9369 11.3573 17.3635 11.0872 17.8287 10.9028C19.222 10.5175 20.7085 10.6623 22.0012 11.3091C21.4733 12.6546 20.4655 13.7568 19.1725 14.4028C17.7796 14.7887 16.2931 14.6448 15 13.9991" stroke="#93C30D" stroke-width="2" stroke-linecap="round" stroke-linejoin="round"/>
<path d="M13.4288 11.6989C13.0631 11.3571 12.6365 11.087 12.1713 10.9026C10.7784 10.5176 9.29236 10.6624 8 11.3089C8.52796 12.6544 9.53574 13.7566 10.8288 14.4026C12.2213 14.7881 13.7073 14.6443 15 13.9989" stroke="#93C30D" stroke-width="2" stroke-linecap="round" stroke-linejoin="round"/>
<path d="M15 13.9961V17.7461" stroke="#93C30D" stroke-width="2" stroke-linecap="round" stroke-linejoin="round"/>
</svg>
