<svg width="26" height="26" viewBox="0 0 26 26" fill="none" xmlns="http://www.w3.org/2000/svg">
<path d="M7.58333 22.7482V12.5649C7.58333 11.9581 7.58333 11.6547 7.70141 11.423C7.80528 11.2191 7.971 11.0534 8.17484 10.9496C8.40658 10.8315 8.70995 10.8315 9.31667 10.8315H16.6833C17.2901 10.8315 17.5934 10.8315 17.8252 10.9496C18.0291 11.0534 18.1947 11.2191 18.2986 11.423C18.4167 11.6547 18.4167 11.9581 18.4167 12.5649V22.7482M10.8333 15.1649H15.1667M10.8333 19.4982H15.1667M3.25 11.3603V21.0149C3.25 21.6215 3.25 21.9249 3.36807 22.1567C3.47194 22.3605 3.63767 22.5262 3.84151 22.6301C4.07325 22.7482 4.37661 22.7482 4.98333 22.7482H21.0167C21.6234 22.7482 21.9268 22.7482 22.1585 22.6301C22.3624 22.5262 22.528 22.3605 22.6319 22.1567C22.75 21.9249 22.75 21.6215 22.75 21.0149V11.3603C22.75 10.1971 22.75 9.61545 22.5732 9.10161C22.4169 8.64721 22.1618 8.23313 21.8261 7.88918C21.4468 7.50025 20.9272 7.23873 19.8882 6.71567L15.3382 4.42518C14.481 3.99373 14.0526 3.778 13.6028 3.69311C13.2044 3.61792 12.7956 3.61792 12.3972 3.69311C11.9474 3.778 11.519 3.99372 10.6619 4.42518L6.11185 6.71567C5.07282 7.23873 4.55329 7.50025 4.17381 7.88918C3.83823 8.23313 3.58308 8.64721 3.42677 9.10161C3.25 9.61545 3.25 10.1971 3.25 11.3603Z" stroke="#FC4D06" stroke-width="1.4" stroke-linecap="round" stroke-linejoin="round"/>
</svg>
