<svg width="26" height="26" viewBox="0 0 26 26" fill="none" xmlns="http://www.w3.org/2000/svg">
<path d="M16.25 21.0152L18.1072 22.7485L22.75 18.4152M13 12.9985V17.3319M15.1667 15.1652H10.8333M5.41667 10.5908V17.5485C5.41667 19.3687 5.41667 20.2788 5.7709 20.9739C6.08248 21.5855 6.57967 22.0827 7.1912 22.3943C7.88641 22.7485 8.79649 22.7485 10.6167 22.7485H11.9167M22.75 12.9985L16.864 6.45949C15.5254 4.97233 14.8561 4.22874 14.0677 3.95424C13.3755 3.71312 12.6219 3.71317 11.9296 3.95439C11.1413 4.22902 10.4722 4.9727 9.13374 6.46006L3.25 12.9985" stroke="#FC4D06" stroke-width="1.6" stroke-linecap="round" stroke-linejoin="round"/>
</svg>
