<svg width="32" height="32" viewBox="0 0 32 32" fill="none" xmlns="http://www.w3.org/2000/svg">
<path d="M11 15.332H21" stroke="#93C30D" stroke-width="1.5" stroke-linecap="round" stroke-linejoin="round"/>
<path d="M9 23.332C8.46957 23.332 7.96086 23.1213 7.58579 22.7462C7.21071 22.3712 7 21.8625 7 21.332V9.33203C7 8.8016 7.21071 8.29289 7.58579 7.91782C7.96086 7.54274 8.46957 7.33203 9 7.33203C9.53043 7.33203 10.0391 7.54274 10.4142 7.91782C10.7893 8.29289 11 8.8016 11 9.33203V21.332C11 21.8625 10.7893 22.3712 10.4142 22.7462C10.0391 23.1213 9.53043 23.332 9 23.332Z" stroke="#93C30D" stroke-width="1.5" stroke-linecap="round" stroke-linejoin="round"/>
<path d="M3 15.332H1" stroke="#93C30D" stroke-width="1.5" stroke-linecap="round" stroke-linejoin="round"/>
<path d="M5 11.332C4.46957 11.332 3.96086 11.5427 3.58579 11.9178C3.21071 12.2929 3 12.8016 3 13.332V17.332C3 17.8625 3.21071 18.3712 3.58579 18.7462C3.96086 19.1213 4.46957 19.332 5 19.332C5.53043 19.332 6.03914 19.1213 6.41421 18.7462C6.78929 18.3712 7 17.8625 7 17.332V13.332C7 12.8016 6.78929 12.2929 6.41421 11.9178C6.03914 11.5427 5.53043 11.332 5 11.332Z" stroke="#93C30D" stroke-width="1.5" stroke-linecap="round" stroke-linejoin="round"/>
<path d="M23 23.332C23.5304 23.332 24.0391 23.1213 24.4142 22.7462C24.7893 22.3712 25 21.8625 25 21.332V9.33203C25 8.8016 24.7893 8.29289 24.4142 7.91782C24.0391 7.54274 23.5304 7.33203 23 7.33203C22.4696 7.33203 21.9609 7.54274 21.5858 7.91782C21.2107 8.29289 21 8.8016 21 9.33203V21.332C21 21.8625 21.2107 22.3712 21.5858 22.7462C21.9609 23.1213 22.4696 23.332 23 23.332Z" stroke="#93C30D" stroke-width="1.5" stroke-linecap="round" stroke-linejoin="round"/>
<path d="M29 15.332H31" stroke="#93C30D" stroke-width="1.5" stroke-linecap="round" stroke-linejoin="round"/>
<path d="M27 11.332C27.5304 11.332 28.0391 11.5427 28.4142 11.9178C28.7893 12.2929 29 12.8016 29 13.332V17.332C29 17.8625 28.7893 18.3712 28.4142 18.7462C28.0391 19.1213 27.5304 19.332 27 19.332C26.4696 19.332 25.9609 19.1213 25.5858 18.7462C25.2107 18.3712 25 17.8625 25 17.332V13.332C25 12.8016 25.2107 12.2929 25.5858 11.9178C25.9609 11.5427 26.4696 11.332 27 11.332Z" stroke="#93C30D" stroke-width="1.5" stroke-linecap="round" stroke-linejoin="round"/>
</svg>
