<svg width="30" height="30" viewBox="0 0 30 30" fill="none" xmlns="http://www.w3.org/2000/svg">
<g clip-path="url(#clip0_11196_734)">
<path d="M17.4412 2.35341C17.1951 1.92324 16.8397 1.56574 16.411 1.31709C15.9823 1.06845 15.4955 0.9375 14.9999 0.9375C14.5043 0.9375 14.0175 1.06845 13.5888 1.31709C13.1601 1.56574 12.8048 1.92324 12.5587 2.35341L9.36366 7.94091C9.24009 8.15698 9.20741 8.41329 9.27281 8.65345C9.33822 8.89362 9.49634 9.09796 9.71241 9.22154C9.92848 9.34511 10.1848 9.37779 10.425 9.31239C10.6651 9.24699 10.8695 9.08886 10.993 8.87279L14.1862 3.28341C14.2682 3.14002 14.3867 3.02085 14.5296 2.93797C14.6725 2.85509 14.8347 2.81144 14.9999 2.81144C15.1651 2.81144 15.3274 2.85509 15.4703 2.93797C15.6132 3.02085 15.7316 3.14002 15.8137 3.28341L20.5762 11.6159L18.2212 10.984C17.981 10.9194 17.7249 10.9528 17.5094 11.0769C17.2938 11.2011 17.1364 11.4057 17.0718 11.6459C17.0071 11.8861 17.0406 12.1421 17.1647 12.3577C17.2888 12.5732 17.4935 12.7306 17.7337 12.7953L22.2618 14.0084C22.3807 14.0405 22.5048 14.0488 22.6269 14.0329C22.7491 14.0169 22.8669 13.9771 22.9736 13.9156C23.0804 13.8542 23.1739 13.7723 23.249 13.6746C23.3241 13.577 23.3792 13.4655 23.4112 13.3465L24.6243 8.81841C24.6562 8.69948 24.6643 8.57544 24.6483 8.45336C24.6322 8.33128 24.5923 8.21356 24.5307 8.10692C24.4692 8.00028 24.3872 7.9068 24.2896 7.83183C24.1919 7.75686 24.0804 7.70186 23.9615 7.66998C23.8425 7.63809 23.7185 7.62994 23.5964 7.64599C23.4743 7.66204 23.3566 7.70198 23.25 7.76353C23.1433 7.82508 23.0499 7.90703 22.9749 8.0047C22.8999 8.10238 22.8449 8.21386 22.813 8.33279L22.1887 10.6615L17.4412 2.35341ZM5.57429 14.5728L3.22116 15.2047C2.98098 15.2693 2.72495 15.2359 2.5094 15.1118C2.29385 14.9876 2.13643 14.783 2.07179 14.5428C2.00714 14.3026 2.04056 14.0466 2.16468 13.831C2.28881 13.6155 2.49348 13.4581 2.73366 13.3934L7.26366 12.1803C7.50359 12.1161 7.75919 12.1498 7.97433 12.2739C8.18947 12.3979 8.34658 12.6023 8.41116 12.8422L9.62429 17.3703C9.68869 17.6105 9.65503 17.8664 9.53073 18.0818C9.40643 18.2972 9.20166 18.4543 8.96148 18.5187C8.72129 18.5831 8.46536 18.5495 8.24998 18.4252C8.03461 18.3009 7.87744 18.0961 7.81304 17.8559L7.18866 15.5272L2.41679 23.8784C2.33536 24.021 2.29279 24.1824 2.29335 24.3466C2.2939 24.5108 2.33756 24.6719 2.41995 24.8139C2.50234 24.9559 2.62058 25.0738 2.76283 25.1557C2.90508 25.2377 3.06637 25.2809 3.23054 25.2809H9.37491C9.62355 25.2809 9.86201 25.3797 10.0378 25.5555C10.2136 25.7313 10.3124 25.9698 10.3124 26.2184C10.3124 26.4671 10.2136 26.7055 10.0378 26.8813C9.86201 27.0571 9.62355 27.1559 9.37491 27.1559H3.23054C2.73802 27.1558 2.25417 27.0263 1.82742 26.7804C1.40066 26.5345 1.04595 26.1809 0.798771 25.7549C0.551597 25.3289 0.420626 24.8454 0.418961 24.3529C0.417297 23.8604 0.544998 23.3761 0.789288 22.9484L5.57429 14.5728ZM25.993 17.3159C25.9336 17.206 25.8528 17.109 25.7554 17.0307C25.6579 16.9525 25.5458 16.8945 25.4256 16.8602C25.3055 16.8259 25.1796 16.8159 25.0556 16.831C24.9315 16.846 24.8117 16.8857 24.7031 16.9477C24.5946 17.0097 24.4996 17.0928 24.4237 17.192C24.3477 17.2913 24.2924 17.4047 24.261 17.5257C24.2295 17.6467 24.2225 17.7727 24.2405 17.8964C24.2585 18.0201 24.301 18.1389 24.3655 18.2459L27.583 23.8784C27.6645 24.021 27.707 24.1824 27.7065 24.3466C27.7059 24.5108 27.6623 24.6719 27.5799 24.8139C27.4975 24.9559 27.3792 25.0738 27.237 25.1557C27.0947 25.2377 26.9335 25.2809 26.7693 25.2809H16.3255L17.5387 24.0697C17.7145 23.8936 17.8131 23.655 17.8129 23.4062C17.8128 23.1574 17.7138 22.9189 17.5377 22.7431C17.4506 22.6561 17.3471 22.587 17.2333 22.54C17.1194 22.4929 16.9974 22.4687 16.8742 22.4688C16.6255 22.469 16.387 22.568 16.2112 22.744L13.3987 25.5565C13.3112 25.6433 13.2418 25.7466 13.1944 25.8604C13.147 25.9741 13.1226 26.0961 13.1226 26.2194C13.1226 26.3426 13.147 26.4646 13.1944 26.5784C13.2418 26.6921 13.3112 26.7954 13.3987 26.8822L16.2112 29.6947C16.387 29.8707 16.6255 29.9697 16.8742 29.9699C16.9974 29.97 17.1194 29.9458 17.2333 29.8987C17.3471 29.8517 17.4506 29.7826 17.5377 29.6956C17.6249 29.6086 17.6941 29.5052 17.7413 29.3914C17.7885 29.2777 17.8128 29.1557 17.8129 29.0325C17.813 28.9093 17.7888 28.7873 17.7418 28.6735C17.6947 28.5597 17.6257 28.4562 17.5387 28.369L16.3255 27.1559H26.7693C27.2618 27.1558 27.7456 27.0263 28.1724 26.7804C28.5992 26.5345 28.9539 26.1809 29.2011 25.7549C29.4482 25.3289 29.5792 24.8454 29.5809 24.3529C29.5825 23.8604 29.4548 23.3761 29.2105 22.9484L25.993 17.3159Z" fill="#93C30D"/>
</g>
<defs>
<clipPath id="clip0_11196_734">
<rect width="30" height="30" fill="white"/>
</clipPath>
</defs>
</svg>
