<svg width="16" height="16" viewBox="0 0 16 16" fill="none" xmlns="http://www.w3.org/2000/svg">
<path d="M13 5.66797C13.9665 5.66797 14.75 4.88447 14.75 3.91797C14.75 2.95147 13.9665 2.16797 13 2.16797C12.0335 2.16797 11.25 2.95147 11.25 3.91797C11.25 4.88447 12.0335 5.66797 13 5.66797Z" stroke="#060D14" stroke-linecap="round" stroke-linejoin="round"/>
<path d="M4.91992 7.53692L7.47392 5.94025L6.60059 4.93892C6.51266 4.8403 6.44516 4.72524 6.40196 4.60038C6.35876 4.47552 6.34074 4.34333 6.34893 4.21147C6.35712 4.0796 6.39135 3.95066 6.44966 3.83211C6.50797 3.71355 6.58919 3.60772 6.68864 3.52074C6.78809 3.43375 6.90379 3.36734 7.02905 3.32533C7.15432 3.28332 7.28666 3.26655 7.41845 3.27599C7.55023 3.28543 7.67884 3.32089 7.79684 3.38032C7.91483 3.43976 8.01989 3.52198 8.10592 3.62225L11.1159 7.06558" stroke="#060D14" stroke-linecap="round" stroke-linejoin="round"/>
<path d="M0.5 13.1651C0.986756 13.1643 1.46653 13.0493 1.90073 12.8293C2.33494 12.6093 2.71145 12.2904 3 11.8984C3.28784 12.2912 3.66419 12.6107 4.09854 12.8309C4.53289 13.0511 5.01302 13.1659 5.5 13.1659C5.98698 13.1659 6.46711 13.0511 6.90146 12.8309C7.33581 12.6107 7.71216 12.2912 8 11.8984C8.28784 12.2912 8.66419 12.6107 9.09854 12.8309C9.53289 13.0511 10.013 13.1659 10.5 13.1659C10.987 13.1659 11.4671 13.0511 11.9015 12.8309C12.3358 12.6107 12.7122 12.2912 13 11.8984C13.2885 12.2904 13.6651 12.6093 14.0993 12.8293C14.5335 13.0493 15.0132 13.1643 15.5 13.1651" stroke="#060D14" stroke-linecap="round" stroke-linejoin="round"/>
<path d="M0.5 10.1651C0.986756 10.1643 1.46653 10.0493 1.90073 9.82927C2.33494 9.60927 2.71145 9.29045 3 8.89844C3.28784 9.29125 3.66419 9.61071 4.09854 9.83091C4.53289 10.0511 5.01302 10.1659 5.5 10.1659C5.98698 10.1659 6.46711 10.0511 6.90146 9.83091C7.33581 9.61071 7.71216 9.29125 8 8.89844C8.28784 9.29125 8.66419 9.61071 9.09854 9.83091C9.53289 10.0511 10.013 10.1659 10.5 10.1659C10.987 10.1659 11.4671 10.0511 11.9015 9.83091C12.3358 9.61071 12.7122 9.29125 13 8.89844C13.2885 9.29045 13.6651 9.60927 14.0993 9.82927C14.5335 10.0493 15.0132 10.1643 15.5 10.1651" stroke="#060D14" stroke-linecap="round" stroke-linejoin="round"/>
</svg>
