<svg width="48" height="48" viewBox="0 0 48 48" fill="none" xmlns="http://www.w3.org/2000/svg">
<path d="M37.5 27.75C42.4706 27.75 46.5 23.7206 46.5 18.75C46.5 13.7794 42.4706 9.75 37.5 9.75C32.5294 9.75 28.5 13.7794 28.5 18.75C28.5 23.7206 32.5294 27.75 37.5 27.75Z" stroke="#14453D" stroke-width="3" stroke-linecap="round" stroke-linejoin="round"/>
<path d="M46.5 18.75C46.5 24.3195 44.2875 29.661 40.3492 33.5992C36.411 37.5375 31.0695 39.75 25.5 39.75" stroke="#14453D" stroke-width="3" stroke-linecap="round" stroke-linejoin="round"/>
<path d="M13.5 27.75C18.4706 27.75 22.5 23.7206 22.5 18.75C22.5 13.7794 18.4706 9.75 13.5 9.75C8.52944 9.75 4.5 13.7794 4.5 18.75C4.5 23.7206 8.52944 27.75 13.5 27.75Z" stroke="#14453D" stroke-width="3" stroke-linecap="round" stroke-linejoin="round"/>
<path d="M22.5 18.75C22.5 24.3195 20.2875 29.661 16.3492 33.5992C12.411 37.5375 7.06955 39.75 1.5 39.75" stroke="#14453D" stroke-width="3" stroke-linecap="round" stroke-linejoin="round"/>
</svg>
