<svg width="16" height="16" viewBox="0 0 16 16" fill="none" xmlns="http://www.w3.org/2000/svg">
<path d="M13.4444 8C13.4444 11.0069 11.0069 13.4444 8 13.4444M13.4444 8C13.4444 4.99312 11.0069 2.55556 8 2.55556M13.4444 8H15M8 13.4444C4.99312 13.4444 2.55556 11.0069 2.55556 8M8 13.4444V15M8 2.55556C4.99312 2.55556 2.55556 4.99312 2.55556 8M8 2.55556V1M2.55556 8H1M10.3333 8C10.3333 9.2887 9.2887 10.3333 8 10.3333C6.7113 10.3333 5.66667 9.2887 5.66667 8C5.66667 6.7113 6.7113 5.66667 8 5.66667C9.2887 5.66667 10.3333 6.7113 10.3333 8Z" stroke="#93C30D" stroke-linecap="round" stroke-linejoin="round"/>
</svg>
