<svg width="25" height="24" viewBox="0 0 25 24" fill="none" xmlns="http://www.w3.org/2000/svg">
<g id="logos:whatsapp-icon" clip-path="url(#clip0_11347_9817)">
<path id="Vector" d="M0.600312 11.8527C0.599656 13.9417 1.14969 15.981 2.19537 17.7786L0.5 23.9207L6.83478 22.2726C8.58022 23.2168 10.5454 23.7147 12.5451 23.7154L12.5502 23.7154C19.136 23.7154 24.4972 18.3975 24.5 11.8621C24.5011 8.69488 23.2591 5.71656 21.0031 3.47609C18.7468 1.23591 15.7468 0.00130234 12.5502 7.90871e-09C5.96337 3.58567e-09 0.602938 5.31721 0.600312 11.8527ZM4.37291 17.469L4.13637 17.0965C3.14206 15.5277 2.61725 13.7149 2.618 11.8534C2.62006 6.4213 7.07544 2.00186 12.554 2.00186C15.2071 2.00298 17.7005 3.02921 19.5759 4.89116C21.4512 6.7533 22.4831 9.22865 22.4824 11.8614C22.48 17.2935 18.0245 21.7135 12.5502 21.7135L12.5463 21.7135C10.7638 21.7126 9.01569 21.2376 7.49113 20.34L7.12831 20.1265L3.36912 21.1045L4.37291 17.469Z" fill="#61D66A"/>
<path id="Vector_2" d="M1.01062 11.8563C1.01006 13.8728 1.54106 15.8417 2.55075 17.5771L0.914062 23.5066L7.02956 21.9156C8.72103 22.8292 10.6162 23.308 12.5421 23.3081L12.5471 23.3081C18.9048 23.3081 24.0801 18.1748 24.0828 11.8653C24.084 8.80792 22.8851 5.93295 20.7069 3.76997C18.5291 1.60718 15.6327 0.415458 12.5467 0.414063C6.18825 0.414063 1.01334 5.54709 1.01072 11.8563" fill="url(#paint0_linear_11347_9817)"/>
<path id="Vector_3" d="M9.56188 6.89771C9.33819 6.4044 9.10278 6.39445 8.89006 6.3858C8.71588 6.37836 8.51675 6.37892 8.31781 6.37892C8.11869 6.37892 7.79516 6.45324 7.52169 6.74952C7.24794 7.04608 6.47656 7.76273 6.47656 9.22031C6.47656 10.678 7.54653 12.0866 7.69569 12.2845C7.84503 12.482 9.76128 15.5689 12.7962 16.7564C15.3184 17.7433 15.8317 17.547 16.3791 17.4975C16.9266 17.4482 18.1457 16.7811 18.3944 16.0892C18.6433 15.3975 18.6433 14.8046 18.5687 14.6807C18.4941 14.5572 18.295 14.4831 17.9964 14.335C17.6977 14.1868 16.2297 13.4701 15.9561 13.3712C15.6823 13.2724 15.4833 13.2231 15.2842 13.5198C15.0851 13.8159 14.5133 14.4831 14.339 14.6807C14.1649 14.8787 13.9906 14.9034 13.6921 14.7552C13.3933 14.6065 12.4318 14.2941 11.2909 13.2849C10.4033 12.4996 9.80403 11.5298 9.62984 11.2331C9.45566 10.937 9.61119 10.7764 9.76091 10.6288C9.89506 10.496 10.0596 10.2828 10.209 10.1099C10.3579 9.93687 10.4076 9.81343 10.5072 9.61585C10.6068 9.41808 10.5569 9.24506 10.4824 9.09687C10.4076 8.94868 9.82738 7.48347 9.56188 6.89771Z" fill="white"/>
</g>
<defs>
<linearGradient id="paint0_linear_11347_9817" x1="1159.35" y1="2309.67" x2="1159.35" y2="0.414063" gradientUnits="userSpaceOnUse">
<stop stop-color="#1FAF38"/>
<stop offset="1" stop-color="#60D669"/>
</linearGradient>
<clipPath id="clip0_11347_9817">
<rect width="24" height="24" fill="white" transform="translate(0.5)"/>
</clipPath>
</defs>
</svg>
